<svg xmlns="http://www.w3.org/2000/svg" id="imageHandle.svg" width="14" height="14" viewBox="0 0 14 14"><defs><style>.cls-1,.cls-3{fill:#2b2b2b}.cls-1{fill-opacity:0}.cls-2{fill:#fff;opacity:.5}.cls-2,.cls-3{fill-rule:evenodd}</style></defs><rect width="14" height="14" class="cls-1"/><path id="single_corner" d="M12,7H7v5a1,1,0,0,1-1,1H2a1,1,0,0,1-1-1V2A1,1,0,0,1,2,1H12a1,1,0,0,1,1,1V6A1,1,0,0,1,12,7Z" class="cls-2" data-name="single corner"/><path id="single_corner-2" d="M11,6H6v5a1,1,0,0,1-1,1H3a1,1,0,0,1-1-1V3A1,1,0,0,1,3,2h8a1,1,0,0,1,1,1V5A1,1,0,0,1,11,6Z" class="cls-3" data-name="single corner"/></svg>